# Blender v2.82 (sub 7) OBJ File: 'islands.blend'
# www.blender.org
mtllib small_island.mtl
o Island_Spring_1_Cube.049
v -19.918839 -0.589304 -6.281016
v -20.489750 -0.594361 -5.164490
v -19.360498 -0.566549 -4.588045
v -18.802496 -0.562357 -5.739715
v -20.044083 -0.121872 -6.516343
v -20.756287 -0.188705 -5.011500
v -19.333738 -0.089056 -4.285362
v -18.622887 -0.065666 -5.790686
v -19.516905 -0.635372 -6.393264
v -18.971392 -0.620606 -6.114823
v -20.343405 -0.643142 -4.773911
v -19.797892 -0.628369 -4.495470
v -19.575359 0.019265 -6.423950
v -18.947027 0.031176 -6.103193
v -20.383337 -0.061749 -4.685044
v -19.799831 -0.038124 -4.387105
v -20.185551 -0.616578 -6.145074
v -20.390633 -0.617287 -5.477662
v -19.057840 -0.592482 -4.797076
v -18.867598 -0.577252 -5.383273
v -20.407251 -0.034967 -6.189397
v -20.700356 -0.024965 -5.596426
v -19.021614 0.040254 -4.762301
v -18.736660 0.043129 -5.320605
v -19.837227 0.001821 -5.933584
v -20.172016 -0.001380 -5.286511
v -19.210909 0.016690 -5.584773
v -19.543913 0.010522 -4.965871
v -20.046490 -0.704078 -5.259187
v -19.709854 -0.703055 -6.309835
v -19.549749 -0.691983 -5.005646
v -18.997929 -0.725232 -5.704877
v -20.078249 -0.424383 -6.567237
v -20.135393 -0.347545 -6.546934
v -20.807655 -0.432559 -5.095847
v -20.822163 -0.355558 -5.102135
v -19.312672 -0.361725 -4.311723
v -19.283808 -0.260752 -4.284392
v -18.538624 -0.353062 -5.807684
v -18.550665 -0.279847 -5.803706
v -19.457350 -0.363245 -6.481371
v -19.584692 -0.163012 -6.541346
v -18.981920 -0.353307 -6.238705
v -18.858072 -0.142485 -6.163979
v -20.538719 -0.172833 -4.672157
v -20.385885 -0.373326 -4.662083
v -19.826796 -0.157436 -4.308720
v -19.910456 -0.363398 -4.419417
v -18.894753 -0.131274 -4.650621
v -18.928293 -0.381019 -4.826469
v -18.571075 -0.128015 -5.284796
v -18.649862 -0.316141 -5.320600
v -20.479683 -0.203495 -6.259322
v -20.445045 -0.383702 -6.316819
v -20.803360 -0.206754 -5.625148
v -20.739418 -0.386092 -5.601393
v -20.097361 -0.066127 -4.525921
v -19.263268 0.001936 -6.269587
v -20.079210 -0.635821 -4.610672
v -19.206528 -0.634919 -6.321776
v -19.454025 -0.811499 -5.782639
v -19.810255 -0.815093 -5.084686
v -19.486973 0.011501 -5.831967
v -19.874214 0.007594 -5.073252
v -20.175570 -0.455723 -4.468407
v -20.159346 -0.327110 -4.513641
v -19.200602 -0.317694 -6.392105
v -19.184349 -0.443092 -6.410330
v -20.449114 -0.650461 -5.849022
v -18.866495 -0.590074 -5.041000
v -20.579752 -0.025565 -5.909780
v -18.806910 0.044548 -5.004575
v -20.004438 0.000297 -5.616011
v -19.385456 0.011838 -5.300029
v -19.904869 -0.802857 -5.572867
v -19.364477 -0.790997 -5.297029
v -20.648115 -0.408613 -5.946733
v -20.722427 -0.313080 -5.984183
v -18.661964 -0.327637 -4.932533
v -18.644073 -0.230884 -4.922984
v -19.680765 0.009541 -5.452697
v -19.625641 -0.923875 -5.431373
v -19.770464 -0.633496 -6.392045
v -20.491203 -0.639844 -4.981092
v -19.868797 -0.015438 -6.566635
v -20.639038 -0.069577 -4.827203
v -19.949022 -0.716215 -6.110714
v -20.201136 -0.643153 -5.397687
v -20.133389 -0.050469 -6.428863
v -20.651146 -0.006546 -5.273489
v -20.718449 -0.374370 -4.887447
v -20.715067 -0.251882 -4.853094
v -19.786678 -0.243174 -6.672115
v -19.833792 -0.364905 -6.621353
v -20.313601 -0.004218 -5.774194
v -20.188122 -0.702489 -5.717499
v -18.806973 -0.587352 -5.916553
v -19.520168 -0.592514 -4.485117
v -18.745077 0.033883 -5.976745
v -19.557861 -0.033965 -4.274831
v -18.738430 0.041083 -5.456720
v -19.277094 0.034201 -4.861147
v -18.855854 -0.624550 -5.418244
v -19.259796 -0.627944 -4.761824
v -18.662737 -0.173629 -6.094820
v -18.664207 -0.285730 -6.017123
v -19.551218 -0.295567 -4.291216
v -19.564802 -0.178836 -4.265612
v -19.074408 -0.648217 -5.148629
v -19.071177 0.037771 -5.139489
v -20.365259 -0.517439 -4.717396
v -19.855215 -0.504276 -4.457064
v -18.940817 -0.473888 -4.756425
v -18.719530 -0.467236 -5.284295
v -20.424120 -0.545715 -6.154611
v -20.599216 -0.532410 -5.603244
v -19.999979 -0.518807 -6.445517
v -20.671724 -0.525383 -5.129869
v -19.336687 -0.476064 -4.448245
v -18.669268 -0.469652 -5.774286
v -19.487078 -0.508344 -6.438006
v -18.977032 -0.495179 -6.177675
v -20.128187 -0.550217 -4.538682
v -19.192051 -0.543040 -6.373362
v -18.838139 -0.463879 -5.024460
v -20.550295 -0.540716 -5.898650
v -20.606827 -0.522583 -4.933855
v -19.803070 -0.514632 -6.508370
v -19.536503 -0.461758 -4.387131
v -18.735271 -0.454053 -5.967703
vn 0.0288 -0.9977 -0.0611
vn -0.0114 -0.9961 -0.0873
vn -0.0602 -0.9748 -0.2146
vn 0.0226 -0.9917 -0.1262
vn 0.8725 -0.4673 0.1424
vn 0.8659 -0.4861 0.1177
vn 0.8861 -0.4201 -0.1960
vn 0.9468 -0.1771 -0.2688
vn 0.1127 0.0459 -0.9926
vn 0.1111 -0.2009 -0.9733
vn -0.0691 -0.0415 -0.9967
vn -0.0307 0.1302 -0.9910
vn -0.8071 -0.5781 -0.1199
vn -0.7929 -0.5994 -0.1098
vn -0.8095 -0.5778 0.1043
vn -0.8725 -0.4681 0.1399
vn 0.8657 -0.2189 -0.4502
vn 0.7403 -0.4566 -0.4934
vn 0.4267 -0.3185 -0.8465
vn 0.5693 -0.1281 -0.8121
vn 0.4516 -0.0657 -0.8898
vn 0.4585 -0.2958 -0.8380
vn 0.4036 -0.3262 -0.8548
vn 0.3648 -0.0688 -0.9286
vn 0.0374 -0.9983 -0.0437
vn 0.0313 -0.9988 -0.0370
vn 0.0530 -0.9936 -0.0995
vn 0.0369 -0.9933 -0.1100
vn 0.0470 -0.9979 -0.0441
vn 0.0582 -0.9980 -0.0256
vn 0.0797 -0.9945 -0.0685
vn 0.0724 -0.9940 -0.0825
vn 0.0193 -0.9998 0.0030
vn 0.0424 -0.9990 0.0106
vn 0.0376 -0.9992 0.0128
vn 0.0198 -0.9998 0.0032
vn -0.4015 -0.4535 0.7957
vn -0.4125 -0.2403 0.8787
vn -0.4457 -0.1826 0.8764
vn -0.4072 -0.4228 0.8095
vn 0.1238 -0.9921 0.0209
vn 0.0571 -0.9984 0.0040
vn 0.0367 -0.9991 0.0224
vn 0.0781 -0.9961 0.0407
vn 0.0337 -0.9986 0.0404
vn 0.0234 -0.9995 0.0189
vn -0.5794 -0.5077 -0.6376
vn -0.6151 -0.5691 -0.5457
vn -0.6132 -0.5657 -0.5513
vn -0.6980 -0.6193 -0.3594
vn -0.6980 -0.6193 -0.3595
vn 0.4962 -0.1276 0.8588
vn 0.4921 -0.3029 0.8162
vn 0.6452 -0.4544 0.6142
vn 0.7075 -0.2117 0.6742
vn 0.7749 -0.4953 0.3927
vn 0.7754 -0.4953 0.3917
vn -0.8247 -0.5348 0.1841
vn -0.6482 -0.7612 0.0190
vn 0.0423 -0.9989 0.0200
vn 0.0225 -0.9997 0.0073
vn -0.4637 -0.2377 0.8535
vn -0.3841 -0.4705 0.7944
vn -0.3289 -0.4954 0.8040
vn -0.8785 -0.4022 0.2579
vn 0.0182 -0.9998 0.0032
vn 0.0356 -0.9993 0.0149
vn 0.0390 -0.9991 0.0140
vn 0.0220 -0.9997 0.0110
vn 0.0240 -0.9974 0.0685
vn 0.0472 -0.9975 0.0532
vn 0.3514 -0.1103 0.9297
vn 0.4400 -0.2695 0.8566
vn 0.0708 -0.9968 0.0377
vn 0.5601 -0.2623 0.7858
vn 0.7943 -0.5995 -0.0981
vn -0.4046 -0.5311 0.7445
vn 0.0391 -0.9992 0.0027
vn -0.2162 0.9252 -0.3119
vn -0.1452 0.8134 -0.5633
vn -0.3414 0.7711 -0.5374
vn -0.4034 0.8335 -0.3776
vn -0.6842 0.5375 0.4929
vn -0.7129 0.6912 0.1182
vn -0.6386 0.7695 0.0129
vn -0.7271 0.6813 0.0845
vn 0.0005 0.6666 0.7454
vn 0.1686 0.7618 0.6255
vn -0.1104 0.7521 0.6498
vn -0.1801 0.4378 0.8809
vn -0.6669 0.3271 0.6696
vn -0.6461 0.3761 0.6642
vn -0.6649 0.4109 0.6238
vn -0.6533 0.3684 0.6614
vn 0.2838 0.9579 -0.0434
vn 0.3276 0.9442 0.0342
vn 0.2199 0.9749 -0.0346
vn 0.3185 0.9463 -0.0555
vn 0.0854 0.9692 -0.2310
vn 0.0749 0.9779 -0.1950
vn -0.1089 0.9622 -0.2496
vn -0.1636 0.9399 -0.2996
vn -0.1734 0.9519 0.2526
vn -0.1091 0.9787 0.1739
vn -0.3802 0.9232 0.0559
vn -0.3104 0.9328 0.1830
vn 0.0037 0.9977 -0.0676
vn -0.2666 0.9412 -0.2076
vn 0.2578 0.9113 0.3209
vn 0.1015 0.9119 0.3977
vn 0.2574 0.9662 0.0158
vn 0.2945 0.9543 0.0508
vn -0.9647 0.2375 -0.1142
vn -0.2798 0.9444 -0.1727
vn -0.5839 0.7816 -0.2193
vn 0.6296 0.7476 0.2113
vn 0.8026 0.5042 0.3189
vn 0.8277 0.5450 0.1333
vn 0.6026 0.7961 0.0553
vn 0.8743 0.4683 0.1281
vn 0.9099 0.3930 0.1331
vn 0.2407 0.8062 0.5404
vn 0.2461 0.7409 0.6249
vn 0.6358 0.3911 0.6655
vn 0.4992 0.7606 0.4151
vn 0.3564 0.1056 0.9283
vn -0.7303 0.6106 -0.3063
vn -0.7519 0.5210 -0.4039
vn -0.8784 0.4576 -0.1377
vn -0.7338 0.6667 -0.1303
vn -0.9426 0.3289 -0.0568
vn -0.9468 0.3025 -0.1098
vn -0.6817 0.3298 -0.6532
vn -0.6944 0.4043 -0.5953
vn -0.6239 0.4801 -0.6166
vn -0.6454 0.5212 -0.5584
vn -0.6990 0.4475 -0.5577
vn -0.6288 0.4582 -0.6282
vn 0.3697 0.5288 -0.7640
vn 0.4269 0.3226 -0.8448
vn 0.2405 0.2963 -0.9243
vn 0.1525 0.4787 -0.8646
vn 0.5909 0.6865 -0.4238
vn 0.5843 0.5272 -0.6170
vn 0.5725 0.3173 -0.7560
vn 0.5607 0.5302 -0.6359
vn 0.5608 0.3170 -0.7649
vn -0.4485 0.1757 0.8763
vn -0.6131 0.1700 0.7715
vn -0.4382 0.1928 0.8780
vn -0.2123 0.4789 0.8518
vn -0.2969 0.2061 0.9324
vn -0.8764 0.1340 0.4626
vn -0.8943 0.4147 -0.1682
vn -0.9474 0.2685 -0.1744
vn -0.0063 0.5717 -0.8205
vn 0.0974 0.3912 -0.9152
vn -0.0168 0.4565 -0.8896
vn -0.2419 0.7008 -0.6710
vn 0.6432 0.7543 -0.1316
vn 0.5679 0.8221 -0.0410
vn 0.9425 0.3046 0.1376
vn -0.1755 0.4261 0.8875
vn -0.1666 0.3810 0.9095
vn -0.4951 0.4659 -0.7334
vn 0.7679 0.2609 0.5850
vn -0.3986 0.9111 -0.1045
vn -0.5556 0.8261 -0.0947
vn 0.2563 0.9005 0.3512
vn 0.3950 0.9136 0.0965
vn 0.2451 0.1591 0.9563
vn 0.8987 0.1099 -0.4245
vn 0.3220 0.9464 -0.0238
vn 0.3136 0.8023 0.5078
vn 0.3498 0.9352 0.0559
vn -0.6067 0.4005 0.6866
vn -0.4938 0.1994 0.8464
vn -0.5153 0.8523 0.0903
vn -0.6768 0.4346 0.5942
vn 0.1295 0.5107 -0.8500
vn 0.5496 0.5742 -0.6067
vn 0.3569 0.5605 -0.7473
vn 0.6004 0.5764 -0.5543
vn -0.6671 0.6005 0.4409
usemtl Grass_Spring
s 1
f 102//1 23//2 7//3 100//4
f 55//5 22//6 6//7 36//8
f 108//9 100//10 7//11 38//12
f 51//13 24//14 8//15 40//16
f 92//17 86//18 15//19 45//20
f 66//21 57//22 16//23 47//24
f 90//25 26//26 15//27 86//28
f 64//29 28//30 16//31 57//32
f 58//33 14//34 27//35 63//36
f 13//37 42//38 67//39 58//40
f 85//41 13//42 25//43 89//44
f 95//45 73//46 26//26 90//25
f 38//47 7//47 23//48 49//49
f 80//50 72//51 24//14 51//13
f 34//52 5//53 21//54 53//55
f 78//56 71//57 22//6 55//5
f 99//58 8//15 24//14 101//59
f 110//60 72//61 23//2 102//1
f 58//40 67//39 44//62 14//63
f 85//64 93//64 42//38 13//37
f 99//58 105//65 40//16 8//15
f 73//46 25//43 63//36 81//66
f 81//66 63//36 27//35 74//67
f 13//42 58//33 63//36 25//43
f 26//26 64//29 57//32 15//27
f 45//20 15//19 57//22 66//21
f 64//29 81//66 74//67 28//30
f 26//26 73//46 81//66 64//29
f 101//68 24//69 72//61 110//60
f 53//55 21//54 71//57 78//56
f 49//49 23//48 72//51 80//50
f 89//44 25//43 73//46 95//45
f 21//70 89//44 95//45 71//71
f 5//53 34//52 93//72 85//73
f 71//71 95//45 90//25 22//74
f 5//53 85//73 89//75 21//54
f 22//6 90//76 86//18 6//7
f 36//8 6//7 86//18 92//17
f 27//35 101//68 110//60 74//67
f 14//63 44//62 105//77 99//77
f 74//67 110//60 102//1 28//30
f 14//34 99//78 101//68 27//35
f 47//24 16//23 100//10 108//9
f 28//30 102//1 100//4 16//31
usemtl Earth
f 104//79 98//80 3//81 19//82
f 130//83 97//84 4//85 120//86
f 128//87 83//88 9//89 121//90
f 124//91 60//92 10//93 122//94
f 88//95 84//96 11//97 29//98
f 62//99 59//100 12//101 31//102
f 60//103 61//104 32//105 10//106
f 82//107 62//99 31//102 76//108
f 83//88 87//109 30//110 9//89
f 96//111 88//95 29//98 75//112
f 97//113 103//113 20//113 4//113
f 109//114 104//79 19//82 70//115
f 126//116 77//117 56//118 116//119
f 77//117 78//120 55//121 56//118
f 117//122 33//123 54//124 115//125
f 33//126 34//52 53//55 54//124
f 125//127 79//128 52//129 114//130
f 79//128 80//131 51//132 52//129
f 119//133 37//134 50//135 113//136
f 37//134 38//137 49//138 50//135
f 123//139 65//140 48//141 112//142
f 65//140 66//21 47//24 48//141
f 127//143 91//144 46//145 111//146
f 91//144 92//147 45//20 46//145
f 67//39 68//148 43//149 44//62
f 93//150 94//151 41//152 42//38
f 105//153 106//153 39//153 40//153
f 114//130 52//129 39//154 120//86
f 52//129 51//132 40//155 39//154
f 129//156 107//157 37//158 119//159
f 107//157 108//9 38//12 37//158
f 116//119 56//118 35//160 118//161
f 56//118 55//121 36//162 35//162
f 46//145 45//20 66//21 65//140
f 42//38 41//152 68//148 67//39
f 111//146 46//145 65//140 123//139
f 75//112 29//98 62//99 82//107
f 9//89 30//110 61//104 60//103
f 29//98 11//97 59//100 62//99
f 121//90 9//89 60//163 124//164
f 30//110 75//112 82//107 61//104
f 50//135 49//138 80//165 79//128
f 113//136 50//135 79//128 125//127
f 54//124 53//55 78//166 77//117
f 115//125 54//124 77//117 126//116
f 103//167 109//114 70//115 20//168
f 87//109 96//111 75//112 30//110
f 61//104 82//107 76//108 32//105
f 17//169 69//170 96//111 87//109
f 34//52 33//126 94//171 93//72
f 35//172 36//8 92//17 91//172
f 118//161 35//160 91//144 127//143
f 69//170 18//173 88//95 96//111
f 1//174 17//169 87//109 83//88
f 18//173 2//175 84//96 88//95
f 117//122 1//174 83//88 128//87
f 32//105 76//108 109//114 103//167
f 48//141 47//24 108//9 107//157
f 112//142 48//141 107//157 129//156
f 44//62 43//149 106//176 105//177
f 76//108 31//102 104//79 109//114
f 10//106 32//105 103//167 97//178
f 122//94 10//93 97//179 130//83
f 31//102 12//101 98//80 104//79
f 43//149 122//94 130//83 106//176
f 12//180 112//142 129//156 98//80
f 33//123 117//122 128//87 94//151
f 2//175 118//161 127//143 84//96
f 17//169 115//125 126//116 69//170
f 19//82 113//136 125//127 70//115
f 41//152 121//90 124//164 68//148
f 11//181 111//146 123//139 59//182
f 18//173 116//119 118//161 2//175
f 98//80 129//156 119//159 3//81
f 20//168 114//130 120//86 4//85
f 84//183 127//143 111//146 11//181
f 59//182 123//139 112//142 12//180
f 3//81 119//159 113//136 19//82
f 70//115 125//127 114//130 20//168
f 1//174 117//122 115//125 17//169
f 69//170 126//116 116//119 18//173
f 68//148 124//91 122//94 43//149
f 94//151 128//87 121//90 41//152
f 106//176 130//83 120//86 39//184
