# Blender v2.91.2 OBJ File: 'bumber.blend'
# www.blender.org
mtllib bumber2.mtl
o Sphere
v 0.000000 0.707107 -0.707107
v 0.000000 -0.000000 -1.000000
v 0.612373 0.707107 -0.353553
v 0.866026 -0.000000 -0.500000
v 0.612372 0.707107 0.353554
v 0.866025 -0.000000 0.500000
v -0.000000 0.707107 0.707107
v -0.000000 -0.000000 1.000000
v -0.000000 1.000000 0.000000
v -0.612373 0.707107 0.353553
v -0.866026 -0.000000 0.500000
v -0.612372 0.707107 -0.353554
v -0.866025 -0.000000 -0.500000
vt 0.666667 0.500000
vt 0.666667 0.750000
vt 0.500000 0.750000
vt 0.500000 0.500000
vt 0.583333 1.000000
vt 0.333333 0.750000
vt 0.333333 0.500000
vt 0.416667 1.000000
vt 0.166667 0.750000
vt 0.166667 0.500000
vt 0.250000 1.000000
vt 0.000000 0.750000
vt 0.000000 0.500000
vt 0.083333 1.000000
vt 1.000000 0.750000
vt 0.916667 1.000000
vt 0.833333 0.750000
vt 1.000000 0.500000
vt 0.833333 0.500000
vt 0.750000 1.000000
vn 0.4706 0.3377 -0.8152
vn 0.2157 0.9021 -0.3737
vn 0.9413 0.3377 0.0000
vn 0.4315 0.9021 -0.0000
vn 0.4706 0.3377 0.8152
vn 0.2157 0.9021 0.3737
vn -0.4706 0.3377 0.8152
vn -0.2157 0.9021 0.3737
vn -0.4315 0.9021 0.0000
vn -0.9413 0.3377 -0.0000
vn -0.2157 0.9021 -0.3737
vn -0.4706 0.3377 -0.8152
g Sphere_Sphere_None
usemtl None
s off
f 2/1/1 1/2/1 3/3/1 4/4/1
f 1/2/2 9/5/2 3/3/2
f 4/4/3 3/3/3 5/6/3 6/7/3
f 3/3/4 9/8/4 5/6/4
f 6/7/5 5/6/5 7/9/5 8/10/5
f 5/6/6 9/11/6 7/9/6
f 8/10/7 7/9/7 10/12/7 11/13/7
f 7/9/8 9/14/8 10/12/8
f 10/15/9 9/16/9 12/17/9
f 11/18/10 10/15/10 12/17/10 13/19/10
f 12/17/11 9/20/11 1/2/11
f 13/19/12 12/17/12 1/2/12 2/1/12
o Sphere.001_Sphere.005
v 0.000000 0.707107 -0.707107
v 0.000000 -0.000000 -1.000000
v 0.612373 0.707107 -0.353553
v 0.866026 -0.000000 -0.500000
v 0.612372 0.707107 0.353554
v 0.866025 -0.000000 0.500000
v -0.000000 0.707107 0.707107
v -0.000000 -0.000000 1.000000
v -0.000000 1.000000 0.000000
v -0.612373 0.707107 0.353553
v -0.866026 -0.000000 0.500000
v -0.612372 0.707107 -0.353554
v -0.866025 -0.000000 -0.500000
vt 0.666667 0.500000
vt 0.500000 0.500000
vt 0.500000 0.750000
vt 0.666667 0.750000
vt 0.583333 1.000000
vt 0.333333 0.500000
vt 0.333333 0.750000
vt 0.416667 1.000000
vt 0.166667 0.500000
vt 0.166667 0.750000
vt 0.250000 1.000000
vt 0.000000 0.500000
vt 0.000000 0.750000
vt 0.083333 1.000000
vt 1.000000 0.750000
vt 0.833333 0.750000
vt 0.916667 1.000000
vt 1.000000 0.500000
vt 0.833333 0.500000
vt 0.750000 1.000000
vn -0.4706 -0.3377 0.8152
vn -0.2157 -0.9021 0.3737
vn -0.9413 -0.3377 -0.0000
vn -0.4315 -0.9021 0.0000
vn -0.4706 -0.3377 -0.8152
vn -0.2157 -0.9021 -0.3737
vn 0.4706 -0.3377 -0.8152
vn 0.2157 -0.9021 -0.3737
vn 0.4315 -0.9021 0.0000
vn 0.9413 -0.3377 0.0000
vn 0.2157 -0.9021 0.3737
vn 0.4706 -0.3377 0.8152
g Sphere.001_Sphere.005_None
usemtl None
s off
f 15/21/13 17/22/13 16/23/13 14/24/13
f 14/24/14 16/23/14 22/25/14
f 17/22/15 19/26/15 18/27/15 16/23/15
f 16/23/16 18/27/16 22/28/16
f 19/26/17 21/29/17 20/30/17 18/27/17
f 18/27/18 20/30/18 22/31/18
f 21/29/19 24/32/19 23/33/19 20/30/19
f 20/30/20 23/33/20 22/34/20
f 23/35/21 25/36/21 22/37/21
f 24/38/22 26/39/22 25/36/22 23/35/22
f 25/36/23 14/24/23 22/40/23
f 26/39/24 15/21/24 14/24/24 25/36/24
o Cylinder_Cylinder.001
v 0.000000 0.664494 0.664494
v 0.000000 -0.229210 0.664494
v -0.575469 0.664494 0.332247
v -0.575469 -0.229210 0.332247
v -0.575469 0.664494 -0.332247
v -0.575469 -0.229210 -0.332247
v 0.000000 0.664494 -0.664494
v 0.000000 -0.229210 -0.664494
v 0.575469 0.664494 -0.332247
v 0.575469 -0.229210 -0.332247
v 0.575469 0.664494 0.332247
v 0.575469 -0.229210 0.332247
vt 1.000000 0.500000
vt 0.833333 0.500000
vt 0.833333 1.000000
vt 1.000000 1.000000
vt 0.666667 0.500000
vt 0.666667 1.000000
vt 0.500000 0.500000
vt 0.500000 1.000000
vt 0.333333 0.500000
vt 0.333333 1.000000
vt 0.457846 0.370000
vt 0.457846 0.130000
vt 0.250000 0.010000
vt 0.042154 0.130000
vt 0.042154 0.370000
vt 0.250000 0.490000
vt 0.166667 0.500000
vt 0.166667 1.000000
vt -0.000000 0.500000
vt -0.000000 1.000000
vt 0.750000 0.490000
vt 0.542154 0.370000
vt 0.542154 0.130000
vt 0.750000 0.010000
vt 0.957846 0.130000
vt 0.957846 0.370000
vn -0.5000 0.0000 0.8660
vn -1.0000 0.0000 -0.0000
vn -0.5000 0.0000 -0.8660
vn 0.5000 0.0000 -0.8660
vn 0.0000 -1.0000 0.0000
vn 1.0000 0.0000 0.0000
vn 0.5000 0.0000 0.8660
vn 0.0000 1.0000 0.0000
g Cylinder_Cylinder.001_None
usemtl None
s off
f 27/41/25 29/42/25 30/43/25 28/44/25
f 29/42/26 31/45/26 32/46/26 30/43/26
f 31/45/27 33/47/27 34/48/27 32/46/27
f 33/47/28 35/49/28 36/50/28 34/48/28
f 30/51/29 32/52/29 34/53/29 36/54/29 38/55/29 28/56/29
f 35/49/30 37/57/30 38/58/30 36/50/30
f 37/57/31 27/59/31 28/60/31 38/58/31
f 27/61/32 37/62/32 35/63/32 33/64/32 31/65/32 29/66/32
