# Blender v2.91.2 OBJ File: ''
# www.blender.org
mtllib wallFall4.mtl
o Cube
v -0.726159 1.632063 -3.419218
v -0.726159 1.902949 -3.148331
v -0.455272 1.632063 -3.148331
v -0.726159 -1.000000 -3.148331
v -0.726159 -0.729114 -3.419218
v -0.455272 -0.729114 -3.148331
v -0.455272 1.632063 0.729114
v -0.726159 1.902949 0.729114
v -0.726159 1.632063 1.000000
v -0.455272 -0.729114 0.729114
v -0.726159 -0.729114 1.000000
v -0.726159 -1.000000 0.729114
v -0.729114 1.632063 -3.419218
v -1.000000 1.632063 -3.148331
v -0.729114 1.902949 -3.148331
v -1.000000 -0.729114 -3.148331
v -0.729114 -0.729114 -3.419218
v -0.729114 -1.000000 -3.148331
v -1.000000 1.632063 0.729114
v -0.729114 1.632063 1.000000
v -0.729114 1.902949 0.729114
v -0.729114 -1.000000 0.729114
v -0.729114 -0.729114 1.000000
v -1.000000 -0.729114 0.729114
vt 0.292352 0.769148
vt 0.293708 0.769148
vt 0.293708 0.988499
vt 0.292352 0.988499
vt 0.441358 0.269148
vt 0.644701 0.269148
vt 0.644701 0.488499
vt 0.441359 0.488499
vt 0.441358 0.304139
vt 0.644701 0.304139
vt 0.644701 0.305495
vt 0.441358 0.379067
vt 0.792352 0.769148
vt 0.793708 0.769148
vt 0.793708 0.988499
vt 0.792352 0.988499
vt 0.537358 0.569148
vt 0.740701 0.569148
vt 0.740701 0.788499
vt 0.537358 0.788499
vt 0.644701 0.431502
vt 0.668030 0.431502
vt 0.644701 0.555824
vt 0.293708 0.571148
vt 0.293708 0.555824
vt 0.418030 0.571148
vt 0.644701 0.790499
vt 0.668030 0.790499
vt 0.644701 0.805824
vt 0.441358 0.805824
vt 0.441358 0.805824
vt 0.418030 0.930145
vt 0.644701 0.503824
vt 0.644701 0.503824
vt 0.668030 0.488499
vt 0.441358 0.503824
vt 0.418030 0.488499
vt 0.644701 0.253823
vt 0.668030 0.269148
vt 0.082752 0.355780
vt 0.082752 0.371104
vt -0.041570 0.355780
vt 0.562752 0.487148
vt 0.562752 0.706499
vt 0.438430 0.706499
vt 0.438430 0.487148
vt 0.292352 0.753823
vt 0.293708 0.753823
vt 0.644701 0.571148
vt 0.441358 0.571148
vt 0.441358 0.431502
vt 0.441358 0.253823
vt 0.748701 0.934146
vt 0.545358 0.934145
vt 0.545358 0.794499
vt 0.747101 0.794499
vt 0.644701 0.628145
vt 0.441358 0.628145
vt 0.668030 0.477033
vt 0.668030 0.379067
vt 0.792352 0.571148
vt 0.792352 0.790499
vt 0.293708 1.003824
vt 0.292352 1.003824
vt 0.668030 0.628145
vt 0.668030 0.629502
vt 0.644701 0.629502
vt 0.293708 0.790499
vt 0.441359 0.790499
vt 0.441358 0.629502
vn 0.0000 -1.0000 0.0000
vn -1.0000 0.0000 0.0000
vn 0.0000 0.0000 1.0000
vn 0.0000 1.0000 0.0000
vn 1.0000 0.0000 0.0000
vn 0.5773 0.5774 -0.5774
vn 0.5773 -0.5774 -0.5774
vn 0.5774 0.5774 0.5774
vn 0.5774 -0.5774 0.5774
vn -0.5773 0.5774 -0.5774
vn -0.5773 -0.5774 -0.5774
vn -0.5774 0.5774 0.5774
vn -0.5774 -0.5774 0.5774
vn -0.7071 -0.7071 0.0000
vn 0.0000 -0.7071 -0.7071
vn 0.7071 0.0000 -0.7071
vn -0.7071 0.0000 0.7071
vn 0.7071 0.0000 0.7071
vn -0.7071 0.0000 -0.7071
vn 0.0000 0.7071 0.7071
vn 0.7071 0.7071 0.0000
vn 0.0000 -0.7071 0.7071
vn -0.7071 0.7071 0.0000
vn 0.0000 0.7071 -0.7071
vn 0.7071 -0.7071 0.0000
vn 0.0000 0.0000 -1.0000
g Cube_Cube_Material.002
usemtl Material.002
s off
f 18/1/1 4/2/1 12/3/1 22/4/1
f 24/5/2 19/6/2 14/7/2 16/8/2
f 11/9/3 9/10/3 20/11/3 23/12/3
f 2/13/4 15/14/4 21/15/4 8/16/4
f 6/17/5 3/18/5 7/19/5 10/20/5
f 1/21/6 2/22/6 3/23/6
f 4/24/7 5/25/7 6/26/7
f 7/27/8 8/28/8 9/29/8
f 10/30/9 11/31/9 12/32/9
f 13/33/10 14/34/10 15/35/10
f 16/8/11 17/36/11 18/37/11
f 19/6/12 20/38/12 21/39/12
f 22/40/13 23/41/13 24/42/13
f 18/43/14 22/44/14 24/45/14 16/46/14
f 4/2/15 18/1/15 17/47/15 5/48/15
f 3/49/16 6/50/16 5/51/16 1/21/16
f 23/52/17 20/38/17 19/6/17 24/5/17
f 9/53/18 11/54/18 10/55/18 7/56/18
f 13/57/19 17/58/19 16/8/19 14/7/19
f 8/59/20 21/60/20 20/11/20 9/10/20
f 2/61/21 8/62/21 7/27/21 3/49/21
f 22/4/22 12/3/22 11/63/22 23/64/22
f 21/39/23 15/35/23 14/7/23 19/6/23
f 15/65/24 2/66/24 1/67/24 13/57/24
f 12/68/25 4/24/25 6/50/25 10/69/25
f 17/58/26 13/57/26 1/67/26 5/70/26
